<?xml version="1.0" standalone="no"?>
<!DOCTYPE svg PUBLIC "-//W3C//DTD SVG 20010904//EN"
 "http://www.w3.org/TR/2001/REC-SVG-20010904/DTD/svg10.dtd">
<svg version="1.0" xmlns="http://www.w3.org/2000/svg"
 width="2767.000000pt" height="1839.000000pt" viewBox="0 0 2767.000000 1839.000000"
 preserveAspectRatio="xMidYMid meet">

<g transform="translate(0.000000,1839.000000) scale(0.100000,-0.100000)"
fill="#000000" stroke="none">
<path d="M21920 18384 c-19 -2 -91 -9 -160 -14 -515 -44 -1127 -202 -1664
-432 -916 -391 -1826 -1038 -2605 -1851 l-133 -140 -267 2 c-146 1 -329 -3
-406 -9 -1065 -82 -2114 -489 -3130 -1214 -438 -312 -897 -711 -1250 -1086
-75 -80 -151 -159 -168 -177 l-32 -31 -105 18 c-269 46 -390 55 -780 55 -244
0 -413 -5 -485 -13 -456 -54 -768 -123 -1185 -262 -686 -229 -1331 -576 -1990
-1071 -439 -330 -892 -744 -1234 -1126 l-118 -132 -56 -6 c-548 -58 -997 -164
-1487 -352 -767 -295 -1521 -763 -2253 -1399 -182 -158 -652 -627 -791 -789
-214 -250 -513 -671 -703 -990 -534 -896 -844 -1785 -909 -2609 -15 -188 -7
-579 16 -746 102 -771 423 -1418 980 -1976 220 -221 418 -382 685 -561 1075
-716 2705 -1189 4780 -1387 740 -71 979 -81 1870 -81 823 0 998 6 1595 56
3283 271 6628 1334 9685 3077 2338 1333 4381 3015 5821 4792 1253 1547 2003
3109 2183 4550 33 264 40 375 40 675 1 389 -23 639 -90 974 -158 779 -526
1519 -1057 2126 -208 236 -506 526 -770 747 -939 785 -1941 1239 -3012 1364
-131 15 -724 28 -815 18z m690 -1319 c712 -85 1382 -368 2050 -865 211 -157
310 -242 579 -495 482 -452 816 -982 985 -1561 213 -734 173 -1585 -116 -2474
-250 -770 -695 -1610 -1276 -2410 -1063 -1463 -2589 -2877 -4437 -4109 -2527
-1686 -5448 -2900 -8360 -3476 -940 -186 -1847 -299 -2845 -356 -303 -17
-1163 -23 -1490 -10 -1655 64 -3162 320 -4220 717 -1197 448 -1905 1077 -2111
1877 -59 228 -82 533 -60 787 59 692 367 1472 896 2270 267 404 496 672 865
1018 927 867 1930 1416 2880 1576 210 36 312 46 525 52 969 31 1907 -337 2839
-1115 225 -187 326 -233 516 -234 186 -1 327 58 460 192 134 134 190 269 190
456 0 111 -20 198 -68 295 -47 97 -165 217 -397 402 -579 462 -1124 778 -1725
1001 -96 35 -226 80 -288 98 -62 18 -111 38 -109 44 2 5 61 58 131 117 737
620 1500 1035 2251 1226 343 88 571 116 930 117 273 0 366 -7 600 -46 714
-118 1458 -487 2132 -1057 159 -134 180 -149 248 -182 237 -113 520 -73 717
101 173 152 254 410 199 629 -26 106 -78 210 -138 279 -57 65 -309 277 -508
426 -275 206 -570 395 -852 545 -68 36 -123 68 -123 71 0 3 59 59 131 125 862
782 1786 1293 2664 1473 286 58 441 74 745 75 304 0 439 -12 705 -65 693 -138
1385 -490 2023 -1030 169 -142 215 -174 302 -208 154 -60 303 -62 462 -7 361
126 531 553 359 901 -53 106 -103 161 -290 317 -388 324 -794 598 -1201 811
-138 72 -393 189 -473 218 -20 7 -36 18 -34 24 6 17 313 271 482 398 861 645
1738 1009 2596 1077 152 12 504 4 659 -15z"/>
</g>
</svg>
